<?xml version="1.0" standalone="no"?>
<!DOCTYPE svg PUBLIC "-//W3C//DTD SVG 20010904//EN"
 "http://www.w3.org/TR/2001/REC-SVG-20010904/DTD/svg10.dtd">
<svg version="1.0" xmlns="http://www.w3.org/2000/svg"
 width="500.000000pt" height="500.000000pt" viewBox="0 0 500.000000 500.000000"
 preserveAspectRatio="xMidYMid meet">

<g transform="translate(0.000000,500.000000) scale(0.100000,-0.100000)"
fill="#000000" stroke="none">
<path d="M1337 3023 c-4 -3 -7 -226 -7 -495 l0 -488 100 0 100 0 0 225 0 225
95 0 95 0 0 95 0 95 -95 0 -95 0 0 80 0 80 100 0 100 0 0 95 0 95 -193 0
c-107 0 -197 -3 -200 -7z"/>
<path d="M1740 2535 l0 -495 205 0 205 0 0 95 0 95 -105 0 -105 0 0 115 0 115
95 0 96 0 -3 93 -3 92 -92 3 -93 3 0 94 0 95 100 0 100 0 0 95 0 95 -200 0
-200 0 0 -495z"/>
<path d="M2170 2535 l0 -495 295 0 295 0 -2 493 -3 492 -97 3 -98 3 0 -411 0
-410 -100 0 -100 0 0 410 0 410 -95 0 -95 0 0 -495z"/>
<path d="M2790 2535 l0 -495 95 0 95 0 0 194 0 193 79 5 c132 8 178 55 202
208 21 136 -7 275 -66 334 -45 45 -97 56 -264 56 l-141 0 0 -495z m256 301
c16 -12 20 -29 22 -99 4 -76 2 -87 -17 -106 -12 -12 -32 -21 -46 -21 l-25 0 0
120 c0 119 0 120 23 120 13 0 32 -6 43 -14z"/>
<path d="M3280 2535 l0 -495 205 0 205 0 0 95 0 95 -105 0 -105 0 0 115 0 115
95 0 96 0 -3 93 -3 92 -92 3 -93 3 0 94 0 95 100 0 100 0 0 95 0 95 -200 0
-200 0 0 -495z"/>
</g>
</svg>
